<svg xmlns="http://www.w3.org/2000/svg" width="24" height="24" viewBox="0 0 24 24"><path d="M17 12.645v-2.29c-1.17-.416-1.907-.532-2.28-1.43-.373-.9.07-1.512.6-2.625l-1.618-1.62c-1.105.526-1.723.975-2.626.6-.9-.373-1.017-1.116-1.43-2.28h-2.29c-.413 1.158-.53 1.907-1.432 2.28-.9.374-1.51-.07-2.626-.6L1.68 6.3c.528 1.11.974 1.723.6 2.624-.374.9-1.122 1.02-2.28 1.43v2.29c1.155.412 1.907.53 2.28 1.43.376.91-.08 1.535-.6 2.626l1.618 1.62c1.107-.526 1.724-.975 2.625-.6.9.372 1.02 1.117 1.432 2.28h2.29c.41-1.16.53-1.906 1.436-2.283h.002c.894-.372 1.5.07 2.62.602l1.617-1.62c-.526-1.107-.975-1.723-.602-2.625.374-.9 1.126-1.02 2.282-1.43zm-8.5 1.69a2.834 2.834 0 1 1 .002-5.67 2.834 2.834 0 0 1-.002 5.67zM24 18.538V17.46c-.55-.196-.897-.25-1.073-.673-.176-.425.033-.712.282-1.237l-.763-.762c-.52.25-.81.46-1.235.284-.424-.175-.48-.525-.674-1.073h-1.076c-.194.546-.25.898-.674 1.074-.424.176-.71-.033-1.235-.283l-.762.763c.25.523.46.812.283 1.236-.176.423-.528.478-1.073.672v1.077c.544.192.897.25 1.073.672.177.427-.038.722-.282 1.236l.763.762c.52-.248.812-.458 1.235-.283.424.175.48.526.674 1.073h1.076c.194-.545.25-.897.676-1.074.422-.175.707.034 1.233.284l.762-.762c-.248-.52-.46-.812-.283-1.235s.53-.48 1.073-.674zm-4 .793a1.333 1.333 0 1 1 0-2.667 1.333 1.333 0 0 1 0 2.667z"/></svg>