<svg xmlns="http://www.w3.org/2000/svg" xmlns:xlink="http://www.w3.org/1999/xlink" version="1.1" x="0px" y="0px" viewBox="0 0 100 125" enable-background="new 0 0 100 100" xml:space="preserve"><path d="M41.64,50.417c0,2.522,0,2.438,2.438,2.438c1.429,0,44.989,0.087,46.165,0.087c1.178,0,1.559-0.778,1.559-3.132  c0-1.428,0.018-6.03,0.018-6.03c-0.057-2.198-0.559-4.625-5.584-4.625h-5.965l-0.086-2.011l-37.797-0.091L19.602,53.197v3.616  c0,0,12.36-8.997,16.06-11.057c3.7-2.06,5.881-0.973,5.966,1.549C41.627,49.797,41.64,50.417,41.64,50.417z"/><polygon points="29.334,44.623 41.627,36.003 41.547,25.535 29.712,35.542 "/><path d="M60.783,31.761c0,0-2.209,0.693-3.023-1.263c-0.814-1.957,1.232-3.037,1.232-3.037l9.725-4.052  c-0.574-0.025-1.304-0.019-2.239-0.019c-3.91,0-17.279,0-19.424,0c-3.657,0-4.162,0.378-4.162,3.027s0,9.459,0,9.459h27.873  c0,0,0-5.047,0-8.274L60.783,31.761z"/><path d="M78.076,20.348l0.047-0.062l-18.84,7.851c0,0-1.4,0.739-0.844,2.077c0.558,1.338,2.068,0.864,2.068,0.864l18.787-7.829  L78.076,20.348z"/><path d="M87.959,17.956c-0.703-1.688-0.572-3.35,0.291-3.71l-7.055,2.94l-2.061,2.721l1.234,2.937l3.373,0.458l7.057-2.94  C89.934,20.721,88.662,19.645,87.959,17.956z"/><ellipse transform="matrix(-0.9231 0.3847 -0.3847 -0.9231 180.6826 -2.417)" cx="90.583" cy="16.862" rx="1.696" ry="3.312"/><path d="M52.903,75.059c1.318-1.302,2.776-2.919,4.118-4.793l0.298-0.42c1.015-1.467,1.944-3.082,2.677-4.816l0.177-0.42  c0.611-1.533,1.059-3.158,1.27-4.854l0.047-0.42c0.027-0.279,0.055-0.559,0.068-0.841c0-2.354,0.757-3.784-2.858-3.7  s-18.582-0.003-18.582-0.003s0.168-1.93,0.168-5.125s-2.018-4.372-5.213-1.766c-3.195,2.606-25.057,17.488-26.738,18.582  c-4.036,2.859-3.279,8.324-3.279,8.324c0.168,3.027,2.271,3.784,2.859,3.868s40.78,0,40.78,0s1.654-1.159,3.777-3.195L52.903,75.059  z M9.615,72.834c-0.286,1.518-1.021,2.653-1.641,2.536c-0.62-0.117-0.89-1.442-0.604-2.959s1.021-2.653,1.641-2.536  C9.63,69.992,9.901,71.317,9.615,72.834z M15.772,70.914c-0.393,2.084-1.402,3.645-2.253,3.484c-0.852-0.16-1.223-1.98-0.83-4.066  c0.394-2.085,1.403-3.645,2.254-3.484S16.166,68.829,15.772,70.914z M23.845,68.271c-0.57,3.024-2.034,5.287-3.27,5.054  c-1.235-0.233-1.773-2.874-1.203-5.898c0.571-3.024,2.034-5.287,3.27-5.054C23.877,62.605,24.416,65.246,23.845,68.271z   M35.024,64.46c-0.961,5.094-3.427,8.906-5.507,8.513c-2.08-0.392-2.987-4.84-2.026-9.934c0.961-5.095,3.427-8.906,5.507-8.513  C35.078,54.918,35.985,59.366,35.024,64.46z"/><path d="M80.69,75.059c1.32-1.302,2.777-2.919,4.119-4.793l0.297-0.42c1.016-1.467,1.945-3.082,2.678-4.816l0.178-0.42  c0.611-1.533,1.059-3.158,1.27-4.854l0.047-0.42c0.027-0.279,0.055-0.559,0.068-0.841c0-2.354,0.756-3.784-2.859-3.7  c-2.766,0.064-11.705,0.028-15.975,0.008c0.977,0.733,1.682,1.508,1.682,3.692c-0.59,11.603-12.865,20.179-12.865,20.179  s-0.107,0-0.302,0.001l-0.011,0.028l17.465-0.029c0,0,1.656-1.159,3.779-3.195L80.69,75.059z"/><text x="0" y="115" fill="#000000" font-size="5px" font-weight="bold" font-family="'Helvetica Neue', Helvetica, Arial-Unicode, Arial, Sans-serif">Created by Renan Ferreira Santos</text><text x="0" y="120" fill="#000000" font-size="5px" font-weight="bold" font-family="'Helvetica Neue', Helvetica, Arial-Unicode, Arial, Sans-serif">from the Noun Project</text></svg>