<svg xmlns="http://www.w3.org/2000/svg" xmlns:xlink="http://www.w3.org/1999/xlink" version="1.1" x="0px" y="0px" viewBox="0 0 100 125" enable-background="new 0 0 100 100" xml:space="preserve"><g><path d="M29.683,56.578c-0.344-4.075-3.804-7.309-8.498-6.769c-2.118,0.243-3.75,1.368-4.743,2.569   c-0.969,1.172-1.911,3.193-1.729,5.534c0.281,3.608,3.155,6.501,6.818,6.768c2.299,0.168,4.172-0.609,5.632-1.878   C28.634,61.524,29.915,59.326,29.683,56.578z M27.064,56.677c-1.038-0.197-2.4-0.069-2.865-0.84   c0.494-0.675,0.825-1.513,1.334-2.174C26.439,54.239,26.982,55.44,27.064,56.677z M25.138,53.169   c-0.474,0.86-1.09,1.579-1.582,2.421c-0.133-0.032-0.188-0.141-0.296-0.198c0.486-0.813,0.959-1.643,1.482-2.42   C24.928,52.983,24.952,53.157,25.138,53.169z M24.298,52.725c-0.202,0.282-0.456,0.647-0.791,1.037   c-0.337,0.392-0.663,1.069-1.334,0.89c-0.466-0.721-1.002-1.37-1.333-2.225C21.958,52.086,23.444,52.249,24.298,52.725z    M20.246,52.725c0.408,0.894,0.925,1.676,1.284,2.618c-0.118,0.079-0.232,0.163-0.444,0.148c-0.354-0.916-0.825-1.712-1.186-2.618   C19.984,52.792,20.08,52.723,20.246,52.725z M19.406,53.219c0.149,0.279,0.325,0.688,0.494,1.136   c0.245,0.651,0.691,1.237,0.147,1.68c-0.856,0-1.712,0-2.568,0C17.782,54.756,18.408,53.801,19.406,53.219z M17.331,56.727   c0.784,0.015,2.062-0.028,2.866,0.246c-0.014,0.449-0.523,0.265-0.791,0.247c-0.621-0.04-1.33-0.131-2.075-0.099   C17.331,56.989,17.331,56.857,17.331,56.727z M18.862,60.63c-0.796-0.628-1.424-1.662-1.482-2.866   c0.809-0.103,1.693,0.108,2.471,0.197c0.622,0.672-0.251,1.4-0.691,2.124C19.037,60.288,19.087,60.558,18.862,60.63z    M19.356,61.073c0.427-0.873,1.021-1.58,1.532-2.37c0.219-0.038,0.17,0.192,0.296,0.246c-0.423,0.861-1.009,1.56-1.481,2.372   C19.58,61.246,19.408,61.22,19.356,61.073z M20.048,61.667c0.54-0.713,1.033-1.471,1.68-2.075c0.248-0.033,0.383,0.046,0.593,0.05   c0.456,0.714,0.917,1.421,1.285,2.223C22.484,62.295,21.065,61.927,20.048,61.667z M24.199,61.618   c-0.514-0.755-1.011-1.789-1.285-2.619c0.082-0.083,0.29-0.039,0.444-0.05c0.304,0.816,0.818,1.423,1.039,2.322   c-0.035,0.132,0.102,0.096,0.147,0.149C24.482,61.54,24.342,61.58,24.199,61.618z M25.138,61.124   c-0.479-0.676-0.683-1.623-1.138-2.323c0.14-0.133,0.165-0.393,0.396-0.543c1.019-0.004,1.666-0.063,2.569,0   C26.748,59.604,25.957,60.379,25.138,61.124z M27.042,57.631c-0.908,0.086-1.932,0.033-2.791-0.127   c0.104-0.113,0.038-0.274,0.048-0.422c0.861,0.127,1.626-0.051,2.521,0.191c0.101,0.094,0.146-0.026,0.215-0.041   C27.11,57.344,27.078,57.487,27.042,57.631z"/></g><g><path d="M89.909,52.329c-1.475-1.508-3.521-2.562-6.472-2.224c-1.104,0.127-1.779,0.439-2.52,0.841   c-2.053,1.109-3.694,3.009-3.903,5.879c-0.333,4.58,2.975,7.872,6.818,8.152c4.474,0.325,7.848-2.855,8.151-6.867   C92.178,55.576,91.058,53.501,89.909,52.329z M87.934,54.157c0.765,0.279-0.354,0.975-0.691,1.285   c-0.45,0.412-0.835,0.711-1.037,0.988c-0.646-0.33,0.193-0.819,0.642-1.236C87.327,54.748,87.642,54.472,87.934,54.157z    M87.538,53.762c-0.293,0.197-0.625,0.495-1.037,0.79c-0.42,0.303-0.94,0.818-1.434,0.594c-0.236-0.819-0.624-1.745-0.691-2.569   C85.767,52.635,86.74,53.11,87.538,53.762z M83.833,52.477c0.042-0.009,0.046,0.021,0.049,0.05   c0.084,0.704,0.481,1.495,0.396,2.471c-0.016,0.175,0.081,0.485-0.198,0.494c-0.401-0.818-0.485-1.952-0.741-2.915   C83.442,52.644,83.748,52.583,83.833,52.477z M82.845,52.922c0.11,0.934,0.738,2.617-0.197,3.014   c-0.834-0.318-1.521-0.346-2.472-0.643C80.766,54.202,81.576,53.333,82.845,52.922z M79.93,55.788   c1.02,0.265,1.978,0.592,2.965,0.889c0.038,0.204-0.076,0.254-0.05,0.444c-1.034-0.299-2.034-0.635-3.062-0.938   C79.848,56.067,79.863,55.902,79.93,55.788z M79.683,56.776c0.397-0.02,0.849,0.16,1.433,0.395   c0.758,0.304,1.308,0.417,1.285,1.136c-0.692,0.543-1.153,1.318-1.928,1.778C79.939,59.262,79.618,58.042,79.683,56.776z    M81.214,61.024c-0.13-0.117-0.298-0.196-0.346-0.395c0.78-0.621,1.478-1.322,2.224-1.977c0.197-0.016,0.134,0.229,0.296,0.247   C82.746,59.691,81.905,60.282,81.214,61.024z M81.709,61.321c0.521-0.615,1.251-1.021,1.827-1.581   c0.13,0.101,0.364,0.097,0.495,0.197c0.22,0.784,0.505,1.504,0.69,2.322C83.412,62.253,82.444,61.902,81.709,61.321z    M85.512,62.112c-0.308-0.222-0.263-0.724-0.346-1.137c-0.087-0.444-0.22-0.848-0.246-1.334c0-0.05,0-0.1,0-0.148   c0.132,0,0.263,0,0.396,0c0.103,0.901,0.364,1.646,0.444,2.569C85.619,62.021,85.631,62.132,85.512,62.112z M86.402,61.815   c-0.274-0.753-0.367-1.599-0.444-2.372c0.686-0.829,1.729,0.06,2.667,0.198C88.169,60.65,87.367,61.314,86.402,61.815z    M88.921,59.098c-0.881-0.255-1.756-0.516-2.568-0.84c0-0.1,0-0.197,0-0.297c1.069-0.095,1.782,0.542,2.717,0.742   C88.998,58.812,88.919,58.915,88.921,59.098z M89.218,58.208c-0.812-0.241-1.471-0.637-2.272-0.89   c-0.393-0.7,0.161-0.907,0.643-1.433c0.38-0.415,0.584-0.729,0.89-0.938C89.055,55.706,89.247,56.993,89.218,58.208z"/></g><path d="M98.547,56.95c0,0-0.001-0.136-0.002-0.365h0.335v-3.511h-0.344c0-0.001,0-0.004,0-0.005  c-1.692-1.521-1.245-5.232-3.31-6.384c0.047-0.216,0.074-0.477,0.074-0.757c0-0.738-0.186-1.337-0.413-1.337  c-0.229,0-0.413,0.599-0.413,1.337c0,0.17,0.011,0.331,0.028,0.481c-4.729-2.008-10.321-2.644-16.003-3.508  c-1.946-0.296-3.963-0.83-5.835-0.833c-2.777-0.006-4.189-0.971-6.53-2.223c-4.753-2.543-9.315-5.358-15.13-6.259  c-0.325-0.05-0.655-0.094-0.987-0.132c-6.949-0.901-14.878-0.238-21.258,0.694c-0.519-0.129-0.723-1.103-1.353-1.123  c-0.261,0.321,0.558,1.345-0.037,1.54c-7.435,1.92-13.688,5.493-22.585,5.951c-1.207,1.367-0.704,4.158-1.591,6.415  c-0.427,1.087-1.435,1.827-1.667,2.779c-0.232,0.951-0.477,3.062-0.417,3.474c0.221,1.506,1.9,2.004,1.946,3.611  c3.997,0.217,7.253,0.714,10.56,1.39c-0.189-6.241,3.933-10.422,10.003-9.586c5.071,0.697,7.523,5.313,7.502,11.254h18.896  c0.336,0.002,0.651,0.003,0.987,0.006c8.353,0.063,16.478,0.374,24.855,0.411c-0.243-6.796,3.366-12.114,9.726-11.394  c4.407,0.499,7.549,4.917,7.086,10.004c-0.062,0.699-0.458,1.114-0.139,1.667c1.361-0.596,5.927-0.177,6.252-1.945  C98.875,58.118,99.061,57.495,98.547,56.95z M11.345,44.808c-0.082,0.092-3.825,3.241-4.758,3.568  c-0.933,0.326-2.053,0.233-2.053,0.233s0.024-3.849,1.423-5.155c0,0,3.592,0.14,4.431,0.374c0.839,0.232,0.985,0.539,1.026,0.629  C11.456,44.548,11.425,44.715,11.345,44.808z M90.172,47.21c3.25-0.539,5.793,0.825,6.114,3.889  C94.029,49.918,92.328,48.527,90.172,47.21z"/><text x="0" y="115" fill="#000000" font-size="5px" font-weight="bold" font-family="'Helvetica Neue', Helvetica, Arial-Unicode, Arial, Sans-serif">Created by José Hernandez</text><text x="0" y="120" fill="#000000" font-size="5px" font-weight="bold" font-family="'Helvetica Neue', Helvetica, Arial-Unicode, Arial, Sans-serif">from the Noun Project</text></svg>