<svg xmlns="http://www.w3.org/2000/svg" xmlns:xlink="http://www.w3.org/1999/xlink" version="1.1" x="0px" y="0px" viewBox="0 0 100 125" enable-background="new 0 0 100 100" xml:space="preserve"><g><path d="M22.491,49.128c-3.216,0-5.833-2.617-5.833-5.834c0-2.646,3.512-8.066,4.589-9.665c0.558-0.828,1.931-0.828,2.488,0   c1.077,1.599,4.589,7.02,4.589,9.665C28.324,46.51,25.708,49.128,22.491,49.128z M22.491,37.249   c-1.518,2.491-2.833,5.104-2.833,6.045c0,1.562,1.271,2.834,2.833,2.834c1.562,0,2.833-1.271,2.833-2.834   C25.324,42.351,24.009,39.739,22.491,37.249z"/><path d="M83.256,81.069c-1.54-8.435-4.822-16.362-9.161-22.458c0.037-1.872-0.649-3.753-2.065-5.19L55.812,36.963l-0.084-0.079   c-0.208-0.181-0.331-0.442-0.335-0.716l-0.003-0.164c-0.015-0.816-0.348-1.577-0.938-2.143l-1.357-1.302   c-1.148-1.102-3.104-1.082-4.227,0.043l-0.697,0.697l-9.056-9.056c-0.311-0.311-0.723-0.445-1.13-0.426l-13.573-7.368   c-0.391-0.212-0.854-0.239-1.267-0.077c-0.413,0.163-0.732,0.5-0.872,0.921l-2.121,6.364c-0.223,0.667,0.048,1.398,0.651,1.76   l10.221,6.133c0.073,0.17,0.174,0.332,0.313,0.471l9.056,9.056L37.09,44.38c-1.511,1.51-1.572,3.899-0.171,5.493   c-1.994,2.644-1.795,6.428,0.612,8.835l8.093,8.093c2.124,2.124,4.947,3.294,7.951,3.294c3.004,0,5.827-1.17,7.951-3.294   l0.527-0.527l1.25,1.286c0.666,0.666,1.551,1.032,2.493,1.033c0.296,0,0.582-0.049,0.863-0.121   c2.916,3.35,5.888,8.076,8.186,14.282c0.222,0.6,0.791,0.979,1.405,0.979c0.12,0,0.241-0.015,0.362-0.044   c1.907-0.474,3.655-0.683,5.145-0.617c0.022,0.001,0.045,0.001,0.066,0.001c0.01,0.001,0.015,0.001,0.02,0   c0.829,0,1.5-0.672,1.5-1.5C83.342,81.396,83.312,81.226,83.256,81.069z M24.553,19.939l10.853,5.892l-3.031,3.031l-8.996-5.398   L24.553,19.939z M34.527,30.969l3.536-3.536l7.987,7.987l-3.536,3.536L34.527,30.969z M59.405,64.679   c-1.558,1.558-3.628,2.415-5.83,2.415s-4.272-0.857-5.83-2.415l-8.093-8.093c-1.283-1.283-1.44-3.271-0.473-4.728   c1.27,0.571,2.829,0.489,4.021-0.36c1.504-1.074,3.675-0.871,4.965,0.486l11.797,12.137L59.405,64.679z M50.327,49.906   c-1.276-1.343-3.072-2.113-4.925-2.113c-1.422,0-2.786,0.438-3.962,1.276c-0.401,0.286-0.979,0.226-1.311-0.133l-0.945-1.017   c-0.376-0.404-0.365-1.027,0.026-1.418l11.806-11.779l1.373,1.336l0.003,0.164c0.021,1.101,0.5,2.147,1.318,2.882l16.182,16.421   c1.576,1.6,1.616,4.143,0.09,5.789l-3.815,4.123c-0.134,0.134-0.291,0.154-0.372,0.154s-0.238-0.021-0.357-0.14L50.327,49.906z    M77.188,80.487c-2.308-5.83-5.216-10.39-8.119-13.768l3.115-3.365c0.301-0.325,0.562-0.672,0.792-1.032   c3.185,5.05,5.657,11.208,7.034,17.78C79.113,80.164,78.169,80.293,77.188,80.487z"/></g><text x="0" y="115" fill="#000000" font-size="5px" font-weight="bold" font-family="'Helvetica Neue', Helvetica, Arial-Unicode, Arial, Sans-serif">Created by Cezary Lopacinski</text><text x="0" y="120" fill="#000000" font-size="5px" font-weight="bold" font-family="'Helvetica Neue', Helvetica, Arial-Unicode, Arial, Sans-serif">from the Noun Project</text></svg>