<svg xmlns="http://www.w3.org/2000/svg" xmlns:xlink="http://www.w3.org/1999/xlink" version="1.1" x="0px" y="0px" viewBox="0 0 100 125" enable-background="new 0 0 100 100" xml:space="preserve"><g><rect x="-330" y="-540" width="185" height="99"/><rect x="-138" y="-576" width="100" height="30"/><text transform="matrix(1 0 0 1 -72 -559.5)" fill="#000000" font-family="'Helvetica'" font-size="2.4">http://thenounproject.com</text><text transform="matrix(1 0 0 1 -130.834 -564.5)"><tspan x="0" y="0" fill="#000000" font-family="'Helvetica-Bold'" font-size="6.1578">The Noun Project</tspan><tspan x="1.12" y="4.8" fill="#000000" font-family="'Helvetica-Bold'" font-size="4">Icon Template</tspan></text><text transform="matrix(1 0 0 1 -316.5 -529.5)" fill="#000000" font-family="'Helvetica-Bold'" font-size="6.1578">Reminders</text><line fill="#000000" stroke="#FFFFFF" stroke-miterlimit="10" x1="-130" y1="-554.5" x2="-120" y2="-554.5"/><line fill="#000000" stroke="#FFFFFF" stroke-miterlimit="10" x1="-317" y1="-523.5" x2="-300" y2="-523.5"/><g><g><g><rect x="-308.802" y="-508.682" fill="#000000" width="8.721" height="8.642"/><path fill="#000000" d="M-302.455-497.688h4.747v-4.703h-4.747V-497.688z M-297.266-497.251h-5.63v-5.579h5.63V-497.251      L-297.266-497.251z M-304.221-495.938h8.279v-8.203h-8.279V-495.938L-304.221-495.938z M-295.5-495.5h-9.163v-9.079h9.163      V-495.5L-295.5-495.5z"/><polygon fill="#000000" points="-304.149,-495.867 -304.292,-496.009 -296.013,-504.213 -295.871,-504.071     "/></g></g></g><rect x="-317" y="-482" fill="none" width="35" height="32.5"/><text transform="matrix(1 0 0 1 -317 -479.8701)"><tspan x="0" y="0" fill="#000000" font-family="'Helvetica-Bold'" font-size="3">Strokes</tspan><tspan x="0" y="5" fill="#000000" font-family="'Helvetica'" font-size="2.4">Try to keep strokes at 4px</tspan><tspan x="0" y="10" fill="#000000" font-family="'Helvetica'" font-size="2.4">Minimum stroke weight is 2px</tspan><tspan x="0" y="14.5" fill="#000000" font-family="'Helvetica'" font-size="2.4">For thicker strokes use even </tspan><tspan x="0" y="17.5" fill="#000000" font-family="'Helvetica'" font-size="2.4">numbers: 6px, 8px etc.</tspan><tspan x="0" y="22" fill="#000000" font-family="'Helvetica-Bold'" font-size="2.4">Remember to expand strokes </tspan><tspan x="0" y="25" fill="#000000" font-family="'Helvetica-Bold'" font-size="2.4">before saving as an SVG </tspan></text><rect x="-274.5" y="-482" fill="none" width="35" height="32.5"/><text transform="matrix(1 0 0 1 -274.5 -479.8701)"><tspan x="0" y="0" fill="#000000" font-family="'Helvetica-Bold'" font-size="3">Size</tspan><tspan x="0" y="5" fill="#000000" font-family="'Helvetica'" font-size="2.4">Cannot be wider or taller than </tspan><tspan x="0" y="8.5" fill="#000000" font-family="'Helvetica'" font-size="2.4">100px (artboard size)</tspan><tspan x="0" y="13.5" fill="#000000" font-family="'Helvetica'" font-size="2.4">Scale your icon to fill as much of </tspan><tspan x="0" y="16.5" fill="#000000" font-family="'Helvetica'" font-size="2.4">the artboard as possible</tspan></text><rect x="-232" y="-482" fill="none" width="35" height="32.5"/><text transform="matrix(1 0 0 1 -232 -479.8701)"><tspan x="0" y="0" fill="#000000" font-family="'Helvetica-Bold'" font-size="3">Ungroup</tspan><tspan x="0" y="5" fill="#000000" font-family="'Helvetica'" font-size="2.4">If your design has more than one </tspan><tspan x="0" y="8" fill="#000000" font-family="'Helvetica'" font-size="2.4">shape, make sure to ungroup</tspan></text><rect x="-188" y="-482" fill="none" width="35" height="32.5"/><text transform="matrix(1 0 0 1 -188 -479.8701)"><tspan x="0" y="0" fill="#000000" font-family="'Helvetica-Bold'" font-size="3">Save as</tspan><tspan x="0" y="5" fill="#000000" font-family="'Helvetica'" font-size="2.4">Save as .SVG and make sure “Use </tspan><tspan x="0" y="8" fill="#000000" font-family="'Helvetica'" font-size="2.4">Artboards” is checked</tspan></text><text transform="matrix(1.0074 0 0 1 -263.542 -509.4067)" fill="#000000" font-family="'Helvetica'" font-size="2.5731">100px</text><text transform="matrix(1.0074 0 0 1 -179 -501)" fill="#000000" font-family="'Helvetica-Bold'" font-size="5.1462">.SVG</text><rect x="-264.514" y="-505.185" fill="#000000" width="10.261" height="10.185"/><rect x="-264.477" y="-508.234" fill="#000000" width="0.522" height="2.337"/><rect x="-254.813" y="-508.234" fill="#000000" width="0.523" height="2.337"/><rect x="-265" y="-507.663" fill="#000000" width="11.233" height="0.572"/><g><rect x="-221.805" y="-506.156" fill="#000000" width="10.305" height="10.156"/><rect x="-214.809" y="-511.293" fill="#000000" width="3.308" height="3.261"/></g><rect x="-316.5" y="-517.5" fill="#000000" stroke="#FFFFFF" stroke-miterlimit="10" width="30" height="30"/><rect x="-274.5" y="-517.5" fill="#000000" stroke="#FFFFFF" stroke-miterlimit="10" width="30" height="30"/><rect x="-231.5" y="-517.5" fill="#000000" stroke="#FFFFFF" stroke-miterlimit="10" width="30" height="30"/><rect x="-187.5" y="-517.5" fill="#000000" stroke="#FFFFFF" stroke-miterlimit="10" width="30" height="30"/></g><g><g><path fill="#000000" d="M326-105.502c-16.293,0-29.502,13.209-29.502,29.498c0,11.296,6.346,21.089,15.664,26.048    c0.273-1.03,0.734-2.123,1.342-3.178c-2.752-1.229-4.688-3.989-4.688-7.202v-29.52c0-4.352,3.541-7.896,7.896-7.896h19.52    c4.355,0,7.9,3.545,7.9,7.896v29.52c0,3.507-2.313,6.447-5.477,7.481c0.535,0.964,0.938,1.959,1.182,2.898    c9.318-4.959,15.664-14.752,15.664-26.048C355.502-92.293,342.293-105.502,326-105.502z"/><path fill="#000000" d="M339.063-68.662h-25.176v8.326c0,1.564,1.27,2.829,2.826,2.829h19.52c1.563,0,2.83-1.265,2.83-2.829    V-68.662z M318.928-59.826c-1.219,0-2.207-0.991-2.207-2.207c0-1.223,0.988-2.214,2.207-2.214c1.223,0,2.211,0.991,2.211,2.214    C321.139-60.817,320.15-59.826,318.928-59.826z M334.613-59.826c-1.223,0-2.211-0.991-2.211-2.207    c0-1.223,0.988-2.214,2.211-2.214c1.219,0,2.211,0.991,2.211,2.214C336.824-60.817,335.832-59.826,334.613-59.826z"/><path fill="#000000" d="M339.063-89.855c0-1.561-1.268-2.828-2.83-2.828h-19.52c-1.557,0-2.826,1.268-2.826,2.828v16.126h25.176    V-89.855z"/><path fill="#000000" d="M326-126.003c-27.615,0-50.004,22.388-50.004,49.999c0,27.62,22.389,50.007,50.004,50.007    s50.004-22.387,50.004-50.007C376.004-103.615,353.615-126.003,326-126.003z M326-41.431c-19.063,0-34.57-15.511-34.57-34.573    c0-19.062,15.508-34.569,34.57-34.569s34.57,15.508,34.57,34.569C360.57-56.941,345.063-41.431,326-41.431z"/><path fill="#000000" d="M332.752-52.394h-13.504c-0.861,0.705-2.305,3.164-2.305,4.24h-0.611c3.031,1.055,6.277,1.655,9.668,1.655    s6.637-0.601,9.668-1.655h-0.611C335.057-49.229,333.613-51.688,332.752-52.394z"/></g><g><path fill="#000000" d="M485.602-84.487c-0.018,0-0.027,0-0.027,0l-7.939-0.569l-5.357-10.121c0,0-1.771-2.187-2.169-2.402    c4.771-1.896,7.223-7.932,4.484-10.674c-0.618-0.618-1.313-0.895-2.025-0.895c-3.108,0-6.583,5.232-5.913,9.969    c-0.381-0.119-0.838-0.175-1.345-0.175c-2.207,0-5.382,1.026-7.446,2.116c-2.692,1.425-10.32,5.776-10.32,5.776l0.534,12.318    c0,0-0.087,3.727,2.49,3.933c0.053,0.004,0.098,0.004,0.147,0.004c2.154,0,2.183-4.01,2.183-4.01l-0.266-9.633l8.452-2.752    l-16.104,42.33c0,0-1.941,3.137,1.052,4.478c0.513,0.23,0.967,0.328,1.365,0.328c1.914,0,2.539-2.207,2.539-2.207l9.811-21.42    l12.165,7.526l3.981,12.427c0,0,1.013,2.962,3.146,2.962c0.343,0,0.713-0.073,1.11-0.252c2.071-0.908,1.041-4.624,1.041-4.624    l-4.537-13.914l-11.958-9.591l4.868-14.089l5.906,7.282l9.898,0.723c0,0,0.027,0,0.08,0c0.439,0,2.493-0.122,2.444-2.424    C487.844-84.41,485.863-84.487,485.602-84.487z"/><path fill="#000000" d="M464-126.003c-27.615,0-50.003,22.388-50.003,49.999c0,27.62,22.388,50.007,50.003,50.007    c27.616,0,50.003-22.387,50.003-50.007C514.003-103.615,491.616-126.003,464-126.003z M490.648-77.065    c-1.854,1.896-4.254,2.1-5.2,2.1h-0.252l-0.167-0.015l-9.901-0.723l-2.016-0.146l-1.274-1.568l-0.604-0.744l-1.041,3.018    l9.388,7.526l1.087,0.874l0.433,1.327l4.537,13.917l0.035,0.099l0.024,0.098c1.055,3.789,0.328,8.399-3.664,10.156    c-0.975,0.43-1.983,0.649-2.993,0.649c-4.041,0-6.604-3.301-7.6-6.213l-3.454-10.785l-6.192-3.832l-7.488,16.346    c-0.911,2.647-3.332,5.189-6.908,5.189c-1.086,0-2.189-0.244-3.279-0.732c-2.047-0.919-3.514-2.516-4.118-4.499    c-0.82-2.665,0.161-5.116,0.72-6.203l7.52-19.757c-3.224-1.227-4.858-4.719-4.837-8.093l-0.527-12.182l-0.126-2.851l2.479-1.414    c0.314-0.182,7.722-4.404,10.453-5.85c1.75-0.923,4.198-1.852,6.598-2.326c0.552-2.403,1.687-4.701,3.301-6.56    c1.997-2.302,4.478-3.565,6.988-3.565c1.977,0,3.873,0.807,5.333,2.267c2.127,2.127,2.958,5.229,2.281,8.508    c-0.489,2.368-1.701,4.6-3.392,6.405l3.765,7.111l5.208,0.373c3.258,0.077,6.713,2.521,6.807,6.996    C492.625-79.625,491.553-77.987,490.648-77.065z"/></g><g><path fill="#000000" d="M-104.447,48.216l-2.043,8.57c1.89,0.146,4.708,0.14,7.903-0.614    C-99.309,52.749-101.502,49.906-104.447,48.216z"/><path fill="#000000" d="M-112.658,60.956l3.385-14.267c-0.392-0.039-0.769-0.115-1.167-0.115c-6.698,0-12.13,5.427-12.13,12.126    c0,6.698,5.432,12.126,12.13,12.126c5.77,0,10.579-4.037,11.805-9.44c-2.151,0.416-4.135,0.563-5.829,0.563    C-107.803,61.948-112.658,60.956-112.658,60.956z"/><path fill="#000000" d="M-103.238,43.137c4.645,2.159,8.141,6.315,9.419,11.376c0.5-0.234,1.003-0.458,1.506-0.737l-9.081-18.371    L-103.238,43.137z"/><path fill="#000000" d="M-87.997-0.003c-27.619,0-50.007,22.388-50.007,49.999c0,27.62,22.388,50.007,50.007,50.007    c27.612,0,50-22.387,50-50.007C-37.996,22.385-60.385-0.003-87.997-0.003z M-63.531,75.894c-9.482,0-17.197-7.711-17.197-17.193    c0-6.321,3.471-11.798,8.57-14.788l-1.561-5.336c-3.34,8.134-7.977,14.277-13.883,18.252c-1.932,1.306-3.866,2.263-5.756,3.004    c-0.594,8.947-7.987,16.062-17.082,16.062c-9.482,0-17.197-7.711-17.197-17.193s7.715-17.197,17.197-17.197    c0.8,0,1.568,0.133,2.34,0.237l3.015-12.71h-4.52l-1.017-5.067l16.754,1.013v4.055h-5.025l10.792,21.825    c5.304-4.512,9.308-11.448,11.931-20.665l-1.824-6.228l14.76-3.709v4.4l-8.494,2.235l4.289,15.102    c1.262-0.293,2.561-0.488,3.908-0.488c9.482,0,17.197,7.715,17.197,17.197S-54.049,75.894-63.531,75.894z"/><path fill="#000000" d="M-63.531,46.574c-0.855,0-1.688,0.091-2.494,0.258L-62.4,59.23l-4.863,1.422l-3.42-11.7    c-3,2.207-4.975,5.735-4.975,9.748c0,6.698,5.432,12.126,12.127,12.126c6.699,0,12.127-5.428,12.127-12.126    C-51.404,52.001-56.832,46.574-63.531,46.574z"/></g><g><path fill="#000000" d="M213.066-224.984h-52.814c-1.758,0-3.615,0-5.219,3.192l-3.572,10.198l3.572,10.38h4.031h2.738    c0,2.725,2.215,4.932,4.936,4.932c2.727,0,4.934-2.207,4.934-4.932h6.699h13.152h10.625c0,2.725,2.207,4.932,4.936,4.932    c2.727,0,4.936-2.207,4.936-4.932h0.83h10.365l2.557-10.38c0,0-9.303-11.696-9.926-12.238    C215.021-224.548,214.064-224.984,213.066-224.984z"/><polygon fill="#000000" points="194.709,-240.152 183.568,-247.148 172.428,-240.152 183.568,-232.646   "/><path fill="#000000" d="M188.004-264.003c-27.619,0-50.008,22.388-50.008,49.999c0,27.62,22.389,50.007,50.008,50.007    c27.611,0,50-22.387,50-50.007C238.004-241.615,215.615-264.003,188.004-264.003z M228.988-199.792l-1.113,4.522h-4.66h-7.025    c-1.945,2.969-5.303,4.932-9.105,4.932c-3.805,0-7.164-1.963-9.105-4.932h-6.455h-13.152h-2.529    c-1.941,2.969-5.295,4.932-9.104,4.932c-3.805,0-7.16-1.963-9.105-4.932h-2.6h-4.242l-1.381-4.009l-3.568-10.384l-0.672-1.952    l0.682-1.945l3.57-10.198l0.129-0.363l0.17-0.346c3.252-6.462,8.352-6.462,10.531-6.462h16.793l-7.447-5.019l-6.469-4.355    l6.602-4.142l11.141-6.999l2.697-1.69l2.695,1.69l11.143,6.999l6.6,4.142l-6.461,4.355l-7.453,5.019h22.975    c2.41,0,4.729,0.905,6.686,2.612c0.453,0.402,1.025,0.898,10.672,13.021l1.824,2.284l-0.699,2.836L228.988-199.792z"/></g><g><path fill="#000000" d="M330.428-229.825h-11.811v-2.688c0-1.446-1.174-2.62-2.627-2.62c-1.445,0-2.623,1.174-2.623,2.62v2.688    h-11.557c-1.377,0-10.967,11.634-10.967,11.634v11.725h9.814c0,2.729,2.207,4.936,4.938,4.936c2.725,0,4.932-2.207,4.932-4.936    h5.688h10.764h8.598c0,2.729,2.207,4.936,4.939,4.936c2.725,0,4.932-2.207,4.932-4.936h0.838h15.34v-6.59    c0,0-25.727-15.354-26.648-15.821C334.047-229.35,332.58-229.825,330.428-229.825z"/><path fill="#000000" d="M326-264.003c-27.615,0-50.004,22.388-50.004,49.999c0,27.62,22.389,50.007,50.004,50.007    s50.004-22.387,50.004-50.007C376.004-241.615,353.615-264.003,326-264.003z M367.527-206.467v5.902h-5.902h-12.029    c-1.936,2.969-5.281,4.932-9.08,4.932c-3.801,0-7.152-1.963-9.088-4.932h-4.449h-10.764h-1.537    c-1.936,2.969-5.281,4.932-9.082,4.932c-3.799,0-7.152-1.963-9.086-4.932h-5.666h-5.906v-5.902v-11.725v-2.119l1.348-1.635    c11.369-13.778,12.93-13.778,15.525-13.778h6.287c1.271-3.112,4.33-5.309,7.893-5.309c3.57,0,6.629,2.196,7.896,5.309h6.541    c2.719,0,5.148,0.534,7.223,1.582c0.908,0.461,15.188,8.969,26.998,16.017l2.879,1.719v3.35V-206.467z"/></g><g><path fill="#000000" d="M82.055-227.995H17.732c-1.746,0-3.164,1.418-3.164,3.165v9.499v12.664h1.99h3.723    c0,2.711,2.193,4.9,4.896,4.9s4.896-2.189,4.896-4.9h9.703h13.049h8.535c0,2.711,2.193,4.9,4.9,4.9c2.699,0,4.893-2.189,4.893-4.9    h0.832h13.236v-12.664v-9.499C85.223-226.577,83.805-227.995,82.055-227.995z"/><path fill="#000000" d="M50-264.003c-27.615,0-50.004,22.388-50.004,49.999c0,27.62,22.389,50.007,50.004,50.007    s50.004-22.387,50.004-50.007C100.004-241.615,77.615-264.003,50-264.003z M91.125-202.667v5.903h-5.902h-9.926    c-1.928,2.947-5.26,4.896-9.035,4.896s-7.107-1.949-9.043-4.896h-4.393H39.777h-5.561c-1.932,2.947-5.26,4.896-9.039,4.896    s-7.111-1.949-9.039-4.896h-1.57H8.666v-5.903v-12.664v-9.499c0-4.998,4.072-9.063,9.066-9.063h64.322    c5.006,0,9.07,4.065,9.07,9.063v9.499V-202.667z"/></g><g><path fill="#000000" d="M-55.893-224.408h-64.319c-1.746,0-3.171,1.415-3.171,3.165v9.499v12.664h1.99h3.724    c0,2.707,2.193,4.9,4.903,4.9c2.699,0,4.89-2.193,4.89-4.9h9.702h13.056h8.535c0,2.707,2.187,4.9,4.896,4.9    c2.704,0,4.897-2.193,4.897-4.9h0.824h13.243v-12.664v-9.499C-52.722-222.993-54.14-224.408-55.893-224.408z"/><path fill="#000000" d="M-88.003-264.003c-27.612,0-50,22.388-50,49.999c0,27.62,22.388,50.007,50,50.007    c27.619,0,50.006-22.387,50.006-50.007C-37.997-241.615-60.384-264.003-88.003-264.003z M-46.819-199.08v5.899h-5.902h-9.926    c-1.928,2.947-5.26,4.9-9.039,4.9c-3.778,0-7.11-1.953-9.038-4.9h-4.394h-13.056h-5.561c-1.928,2.947-5.26,4.9-9.031,4.9    c-3.779,0-7.118-1.953-9.046-4.9h-1.571h-5.896v-5.899v-12.664v-9.499c0-4.998,4.062-9.063,9.066-9.063h24.021l-16.324-17.449    l3.975-3.723l19.811,21.172h3.437l-16.324-17.449l3.975-3.723l19.81,21.172h21.94c5.001,0,9.073,4.065,9.073,9.063v9.499V-199.08z    "/></g><g><path fill="#000000" d="M478.029-234.826c0,0-0.559-0.853-1.746-1.01c-0.16-0.017-0.385-0.031-0.643-0.031    c-0.979,0-2.396,0.119-2.396,0.119l-31.594,7.736c0,0-1.41,0.366-2.137,1.037c-0.385,0.359-1.02,1.83-1.02,1.83l-2.85,7.456    l-6.609,3.102l1.334,6.161c3.668,0.102,5.604,1.159,7.363,2.123c1.621,0.884,2.898,2.093,5.721,2.093s4.098-1.209,5.715-2.093    c1.85-1.013,3.945-2.158,7.963-2.158c4.023,0,6.119,1.146,7.969,2.155c1.621,0.887,2.898,2.096,5.721,2.096    c2.83,0,4.115-1.209,5.736-2.096c1.85-1.01,4.756-2.155,8.779-2.155c3.066,0,7.174,1.631,7.174,1.631    c2.938-3.115,5.252-8.116,6.123-10.341c0.541-1.387,2.154-5.515,2.154-5.515l-12.824,0.897L478.029-234.826z"/><path fill="#000000" d="M463.996-264.003c-27.615,0-50,22.388-50,49.999c0,27.62,22.385,50.007,50,50.007    c27.619,0,50.008-22.387,50.008-50.007C514.004-241.615,491.615-264.003,463.996-264.003z M498.367-190.91    c-4.117,0-6.354-1.32-8.145-2.383c-1.582-0.936-2.832-1.676-5.564-1.676c-2.73,0-3.98,0.74-5.563,1.676    c-1.793,1.063-4.027,2.383-8.145,2.383c-4.119,0-6.348-1.32-8.135-2.383c-1.578-0.936-2.826-1.676-5.553-1.676    c-2.725,0-3.969,0.74-5.547,1.676c-1.789,1.063-4.018,2.383-8.131,2.383c-4.115,0-6.342-1.32-8.131-2.383    c-1.578-0.936-4.178-1.516-6.9-1.516l-1.252-5.427c5.303-0.392,7.502,1.379,9.385,2.267c1.793,0.845,4.174,1.987,6.898,1.987    s3.971-0.737,5.547-1.673c1.791-1.059,4.016-2.379,8.131-2.379c4.113,0,6.342,1.32,8.137,2.379    c1.578,0.936,2.822,1.673,5.551,1.673c2.734,0,3.984-0.737,5.563-1.673c1.795-1.059,4.023-2.379,8.145-2.379    s6.35,1.316,8.145,2.379c1.58,0.932,2.83,1.673,5.564,1.673V-190.91z M503.354-215.327c-0.488,1.25-3.129,7.701-7.152,11.973    l-2.363,2.511l-3.199-1.271c-1.004-0.402-3.73-1.278-5.303-1.278c-2.344,0-4.484,0.517-6.35,1.533    c-0.244,0.136-0.482,0.282-0.719,0.43c-1.492,0.907-3.744,2.283-7.447,2.283c-3.695,0-5.943-1.376-7.432-2.283    c-0.24-0.147-0.475-0.294-0.727-0.43c-1.627-0.891-2.809-1.533-5.531-1.533c-2.721,0-3.898,0.643-5.533,1.536    c-0.244,0.14-0.482,0.286-0.719,0.43c-1.488,0.908-3.738,2.28-7.426,2.28c-3.691,0-5.941-1.372-7.428-2.28    c-0.238-0.144-0.473-0.29-0.725-0.43c-1.525-0.831-2.625-1.436-5.07-1.502l-3.971-0.111l-0.842-3.884l-1.334-6.161l-0.854-3.946    l3.654-1.712l4.754-2.234l2.119-5.547l0.039-0.098l0.041-0.098c1.059-2.452,1.869-3.21,2.232-3.542    c1.498-1.39,3.514-2.021,4.373-2.242l31.594-7.739l0.387-0.098l0.408-0.028c0,0,1.664-0.133,2.809-0.133    c0.51,0,0.961,0.025,1.313,0.07c2.914,0.388,4.549,2.189,5.148,3.018l8.236,10.806l10.096-0.705l7.996-0.559l-2.92,7.46    L503.354-215.327z"/></g><g><path fill="#000000" d="M471.677-367.706h-39.683c-1.746,0-3.167,1.418-3.167,3.168v23.344h1.986h3.724    c0,2.707,2.193,4.897,4.899,4.897c2.707,0,4.894-2.19,4.894-4.897h5.647h13.052h8.532c0,2.707,2.197,4.897,4.9,4.897    s4.896-2.19,4.896-4.897h0.824h16.987v-5.689l-21.671-18.957C477.499-365.841,475.938-367.706,471.677-367.706z"/><path fill="#000000" d="M464-402.003c-27.616,0-50.003,22.388-50.003,49.999c0,27.62,22.387,50.007,50.003,50.007    s50.003-22.387,50.003-50.007C514.003-379.615,491.616-402.003,464-402.003z M505.076-341.194v5.899h-5.906h-13.669    c-1.932,2.947-5.26,4.896-9.039,4.896s-7.111-1.949-9.043-4.896h-4.39h-13.052h-1.502c-1.928,2.947-5.26,4.896-9.039,4.896    c-3.775,0-7.107-1.949-9.038-4.896h-1.571h-5.903v-5.899v-23.344c0-4.998,4.069-9.067,9.07-9.067h39.683    c5.613,0,8.658,2.26,9.891,3.482l21.494,18.797l2.015,1.761v2.682V-341.194z"/></g><g><path fill="#000000" d="M73.756,42.379l-4.764-12.283c-0.887-2.354-2.832-4.352-6.51-4.372H55.77H44.303h-6.828    c-3.66,0.021-5.605,2.019-6.51,4.372l-4.76,12.283c-1.889,0.245-5.236,2.466-5.229,6.671v15.644h4.645v4.994    c-0.006,3.07,2.156,4.586,4.324,4.586c2.184,0,4.373-1.537,4.373-4.586v-4.994H50h15.639v4.994    c0.012,3.049,2.209,4.586,4.395,4.586c2.176,0,4.342-1.516,4.346-4.586v-4.994h4.645V49.05    C79.006,44.845,75.66,42.624,73.756,42.379z M30.105,59.388c-2.225,0.004-4.025-1.851-4.016-4.131    c-0.01-2.299,1.791-4.16,4.016-4.136c2.215-0.024,4.021,1.837,4.018,4.136C34.127,57.537,32.32,59.392,30.105,59.388z M50,42.264    h-0.043H31.16l3.584-11.187c0.438-1.586,1.111-2.724,2.697-2.748h12.516H50h12.559c1.564,0.024,2.236,1.162,2.689,2.748    l3.59,11.187H50z M69.893,59.388c-2.242,0.004-4.043-1.851-4.057-4.131c0.014-2.299,1.814-4.16,4.057-4.136    c2.201-0.024,4.004,1.837,4.018,4.136C73.896,57.537,72.094,59.392,69.893,59.388z"/><polygon fill="#000000" points="50,33.396 39.322,33.396 38.107,37.196 49.957,37.196 61.889,37.196 60.67,33.396   "/><path fill="#000000" d="M50-0.003c-27.615,0-50.004,22.388-50.004,49.999c0,27.62,22.389,50.007,50.004,50.007    s50.004-22.387,50.004-50.007C100.004,22.385,77.615-0.003,50-0.003z M84.092,64.693v5.067h-4.646    c-0.037,5.47-4.076,9.584-9.412,9.584c-5.352,0-9.406-4.107-9.461-9.584H50H39.387c-0.035,5.47-4.084,9.584-9.441,9.584    c-2.543,0-4.906-0.964-6.656-2.718c-1.754-1.76-2.725-4.197-2.734-6.866h-4.646v-5.067V49.057    c-0.01-5.382,3.133-8.962,6.398-10.645l3.926-10.136c1.852-4.813,5.938-7.593,11.242-7.621h6.828H55.77h6.713h0.014h0.014    c5.313,0.028,9.402,2.818,11.209,7.607l3.922,10.107c3.506,1.781,6.43,5.63,6.451,10.68V64.693z"/></g><g><path fill="#000000" d="M0.516-83.514c-0.238,1.655-0.391,3.332-0.465,5.033H75.93c-0.264-0.518-0.621-0.985-0.98-1.442    C61.979-96.691,55-95.238,45.018-95.664c-3.328-0.137-5.584-0.192-18.832-0.192c-7.09,0-14.797,0.018-22.303,0.038    c0.736-1.746,1.6-3.419,2.525-5.061C3.523-95.772,1.543-90.107,0.604-84.09l0.891-4.397c0.006-0.031,0.018-0.063,0.023-0.094H40.4    v5.067H0.516z"/><path fill="#000000" d="M76.527-73.409H0.09c0.08,1.352,0.205,2.686,0.387,4.002c29.299,0,66.891,0,70.572,0    C74.195-69.407,75.955-71.192,76.527-73.409z"/><path fill="#000000" d="M26.197-100.924l0.002,5.067v-5.067c15.445,0,16.018,0.069,19.035,0.195l1.869,0.069    c6.506,0.217,14.504,0.916,20.797,5.68c3.416,2.584,8.348,8.287,11.289,12.35c2.717,3.758,3.5,8.078,1.652,12.217    c-1.701,3.804-5.361,6.073-9.793,6.073H1.494l-0.885-4.201c0.426,2.707,1.037,5.344,1.879,7.886h94.914    c1.631-4.935,2.547-10.198,2.547-15.682c0-27.611-22.387-49.999-50.004-49.999c-18.682,0-34.939,10.265-43.523,25.439    C13.131-100.91,19.92-100.924,26.197-100.924z"/><path fill="#000000" d="M4.494-55.584c-0.74-1.624-1.404-3.286-1.98-4.997C9.121-40.691,27.842-26.33,49.945-26.33    c20.205,0,37.566-12.007,45.453-29.254H4.494z"/></g><path fill="#000000" d="M597.803-48.596c-0.018,0.531-0.08,1.055-0.08,1.589c0,0.538,0.063,1.059,0.08,1.59V-48.596z"/><path fill="#000000" d="M693.192-26.281c0.736-1.614,1.4-3.266,1.963-4.967C694.593-29.551,693.929-27.898,693.192-26.281z"/><g><path fill="#000000" d="M139.429-64.311c-0.188-0.8-0.391-1.596-0.538-2.409C139.045-65.906,139.236-65.11,139.429-64.311z"/><path fill="#000000" d="M158.051-62.25h-18.095c1.624,5.683,4.229,10.936,7.621,15.598L158.051-62.25z"/><g><path fill="#000000" d="M188-126.003c-27.619,0-50.003,22.388-50.003,49.999c0,2.969,0.307,5.861,0.803,8.687h28.762     l-16.639,24.783c1.917,2.124,3.999,4.086,6.252,5.854l24.79-28.663c0.531-0.633,0.999-1.296,1.438-1.974h17.83     c6.772,0,24.424-2.444,24.424-9.214c0-6.769-17.651-9.213-24.424-9.213h-17.83c-0.439-0.674-0.907-1.338-1.438-1.97     l-24.088-27.856c1.354-1.023,2.763-1.98,4.219-2.868l23.753,27.466c0.042,0.053,0.087,0.104,0.133,0.161h15.252     c0.297,0,29.491,0.388,29.491,14.28c0,13.894-29.194,14.281-29.491,14.281h-15.252c-0.06,0.077-0.119,0.147-0.182,0.221     l-24.459,28.282c7.723,4.883,16.845,7.75,26.659,7.75c27.616,0,50.003-22.387,50.003-50.007     C238.003-103.615,215.616-126.003,188-126.003z M167.562-85.744h-28.556c0.35-1.726,0.797-3.412,1.32-5.067h17.722l-9.999-14.893     c1.058-1.411,2.189-2.763,3.388-4.052L167.562-85.744z"/></g></g><g><path fill="#000000" d="M-88.333-126.336c-15.646,0-29.604,7.194-38.774,18.447h51.944c0.095-0.003,0.221-0.007,0.378-0.007    c1.354,0,4.065,0.195,7.013,1.498c3.835,1.698,6.321,5.089,6.782,5.753l0.099,0.143l0.091,0.15l5.497,9.214l3.066,0.021    l6.74,0.049l-1.917,6.462l-6.553,22.09l-1.425,4.803l-4.819-1.366c-2.812-0.8-6.053-1.501-6.939-1.505    c-2.753,0-4.01,0.74-5.599,1.677c-1.799,1.058-4.041,2.378-8.177,2.378c-4.128,0-6.363-1.316-8.165-2.378    c-1.586-0.937-2.843-1.677-5.592-1.677s-3.999,0.74-5.588,1.677c-1.799,1.058-4.034,2.378-8.162,2.378    c-4.125,0-6.364-1.316-8.166-2.382c-1.522-0.897-2.836-1.673-5.588-1.673c-2.745,0-4.003,0.74-5.588,1.677    c-1.484,0.873-3.336,1.886-6.241,2.225c-0.709-1.6-1.352-3.237-1.894-4.918c2.725-0.007,3.979-0.743,5.557-1.673    c1.803-1.062,4.038-2.382,8.166-2.382s6.37,1.32,8.165,2.382c1.586,0.937,2.844,1.677,5.589,1.677s4.002-0.74,5.588-1.677    c1.795-1.062,4.03-2.382,8.162-2.382s6.367,1.32,8.166,2.382c1.589,0.937,2.846,1.677,5.591,1.677c2.753,0,4.01-0.74,5.603-1.68    c1.802-1.059,4.037-2.379,8.173-2.379c2.347,0,8.326,1.697,8.326,1.697l6.552-22.087l-5.92-0.045l-6.961-11.662    c0,0-1.941-2.801-4.673-4.01c-2.193-0.971-4.24-1.062-4.959-1.062c-0.175,0-0.272,0.004-0.272,0.004h-55.634    c-4.816,7.684-7.645,16.743-7.645,26.483c0,27.62,22.387,50.007,50.003,50.007c27.615,0,50.003-22.387,50.003-50.007    C-38.33-103.948-60.718-126.336-88.333-126.336z M-67.615-82.875c1.219,0,2.211,0.992,2.211,2.211c0,1.22-0.992,2.211-2.211,2.211    c-1.223,0-2.211-0.991-2.211-2.211C-69.826-81.883-68.838-82.875-67.615-82.875z M-76.965-82.875c1.223,0,2.207,0.992,2.207,2.211    c0,1.22-0.984,2.211-2.207,2.211s-2.207-0.991-2.207-2.211C-79.172-81.883-78.188-82.875-76.965-82.875z M-86.15-82.875    c1.219,0,2.207,0.992,2.207,2.211c0,1.22-0.988,2.211-2.207,2.211c-1.223,0-2.211-0.991-2.211-2.211    C-88.361-81.883-87.373-82.875-86.15-82.875z M-95.339-82.875c1.219,0,2.207,0.992,2.207,2.211c0,1.22-0.988,2.211-2.207,2.211    c-1.22,0-2.211-0.991-2.211-2.211C-97.55-81.883-96.559-82.875-95.339-82.875z M-53.376-47.635c-4.136,0-6.374-1.32-8.173-2.375    c-1.593-0.939-2.85-1.68-5.602-1.68c-2.753,0-4.01,0.74-5.603,1.68c-1.795,1.055-4.037,2.375-8.173,2.375    c-4.128,0-6.37-1.32-8.165-2.378c-1.59-0.937-2.847-1.677-5.592-1.677c-2.749,0-3.999,0.74-5.585,1.677    c-1.802,1.058-4.037,2.378-8.165,2.378c-4.129,0-6.371-1.32-8.166-2.378c-1.586-0.937-2.843-1.677-5.588-1.677    s-4.003,0.74-5.588,1.677c-0.587,0.346-1.258,0.709-1.991,1.055c-0.95-1.407-1.823-2.867-2.634-4.369    c0.717-0.29,1.359-0.643,2.047-1.052c1.803-1.058,4.038-2.378,8.166-2.378s6.37,1.32,8.165,2.378    c1.586,0.937,2.844,1.677,5.589,1.677s4.002-0.74,5.588-1.677c1.795-1.058,4.03-2.378,8.162-2.378s6.367,1.32,8.166,2.378    c1.589,0.937,2.846,1.677,5.591,1.677c2.753,0,4.01-0.74,5.603-1.68c1.802-1.055,4.037-2.375,8.173-2.375    c4.135,0,6.377,1.32,8.172,2.375c1.593,0.939,2.851,1.68,5.603,1.68V-47.635z"/></g><g><path fill="#000000" d="M-120.54-338.739v6.378c0,1.114,0.912,2.026,2.029,2.026h7.942c1.114,0,2.026-0.912,2.026-2.026v-6.378    c0-1.113-0.912-2.025-2.026-2.025h-7.942C-119.628-340.765-120.54-339.853-120.54-338.739z"/><path fill="#000000" d="M-75.682-369.696v-10.408c0-1.114-0.912-2.025-2.029-2.025h-21.193c-1.118,0-2.029,0.911-2.029,2.025    v10.408c0,1.113,0.911,2.029,2.029,2.029h21.193C-76.594-367.667-75.682-368.583-75.682-369.696z"/><path fill="#000000" d="M-84.305-340.765h-7.942c-1.113,0-2.025,0.912-2.025,2.025v6.378c0,1.114,0.912,2.026,2.025,2.026h7.942    c1.117,0,2.029-0.912,2.029-2.026v-6.378C-82.275-339.853-83.188-340.765-84.305-340.765z"/><path fill="#000000" d="M-58.041-340.765h-7.941c-1.117,0-2.025,0.912-2.025,2.025v6.378c0,1.114,0.908,2.026,2.025,2.026h7.941    c1.118,0,2.029-0.912,2.029-2.026v-6.378C-56.012-339.853-56.923-340.765-58.041-340.765z"/><path fill="#000000" d="M-88-402.003c-27.616,0-50.003,22.387-50.003,50.006c0,27.613,22.387,50,50.003,50    c27.615,0,50.003-22.387,50.003-50C-37.997-379.616-60.385-402.003-88-402.003z M-77.208-332.361c0,3.911-3.182,7.097-7.097,7.097    h-7.942c-3.912,0-7.097-3.186-7.097-7.097v-6.378c0-3.911,3.185-7.093,7.097-7.093h7.942c3.915,0,7.097,3.182,7.097,7.093    V-332.361z M-58.041-325.265h-7.941c-3.912,0-7.098-3.186-7.098-7.097v-6.378c0-3.911,3.186-7.093,7.098-7.093h2.2v-7.24    c0-0.133-0.118-0.251-0.251-0.251h-22.5v7.432h-3.548v-7.432h-22.43c-0.136,0-0.255,0.118-0.255,0.251v7.24h2.197    c3.912,0,7.097,3.182,7.097,7.093v6.378c0,3.911-3.186,7.097-7.097,7.097h-7.942c-3.916,0-7.097-3.186-7.097-7.097v-6.378    c0-3.911,3.182-7.093,7.097-7.093h2.197v-7.24c0-2.096,1.704-3.8,3.803-3.8h22.43v-5.729h-8.823c-3.915,0-7.097-3.185-7.097-7.096    v-10.408c0-3.912,3.182-7.098,7.097-7.098h21.193c3.916,0,7.098,3.186,7.098,7.098v10.408c0,3.911-3.182,7.096-7.098,7.096h-8.822    v5.729h22.5c2.095,0,3.799,1.704,3.799,3.8v7.24h2.193c3.916,0,7.098,3.182,7.098,7.093v6.378    C-50.943-328.45-54.125-325.265-58.041-325.265z"/></g><g><path fill="#000000" d="M63.586-331.677h-2.399c-1.117,0-2.025-0.912-2.025-2.025v-21.186c0-1.115-0.915-2.026-2.029-2.026h-2.047    c-1.114,0-2.937,0-4.055,0h-5.749c-1.117,0-2.94,0-4.055,0H39.18c-1.113,0-2.028,0.911-2.028,2.026v1.375    c0,1.115,0.915,2.025,2.028,2.025h2.047c1.114,0,2.029,0.912,2.029,2.026v15.759c0,1.113-0.915,2.025-2.029,2.025h-2.399    c-1.117,0-2.025,0.912-2.025,2.025v1.377c0,1.117,0.908,2.029,2.025,2.029h2.399c1.114,0,2.938,0,4.055,0h11.851    c1.114,0,2.938,0,4.055,0h2.399c1.114,0,2.029-0.912,2.029-2.029v-1.377C65.615-330.765,64.7-331.677,63.586-331.677z"/><path fill="#000000" d="M49.997-370.706c3.366,0,6.098-2.729,6.098-6.098c0-3.371-2.731-6.099-6.098-6.099    c-3.367,0-6.099,2.728-6.099,6.099C43.898-373.435,46.63-370.706,49.997-370.706z"/><path fill="#000000" d="M49.997-402.003c-27.612,0-50,22.387-50,50.006c0,27.613,22.388,50,50,50    c27.619,0,50.006-22.387,50.006-50C100.003-379.616,77.616-402.003,49.997-402.003z M49.997-387.97    c6.16,0,11.169,5.008,11.169,11.166c0,6.156-5.009,11.165-11.169,11.165c-6.154,0-11.166-5.009-11.166-11.165    C38.831-382.962,43.843-387.97,49.997-387.97z M70.683-328.274c0,3.914-3.182,7.096-7.097,7.096h-2.399h-4.055H45.281h-4.055    h-2.399c-3.911,0-7.097-3.182-7.097-7.096v-1.377c0-3.695,2.843-6.74,6.454-7.064v-9.77c-3.443-0.488-6.102-3.454-6.102-7.027    v-1.375c0-3.912,3.182-7.098,7.097-7.098h2.047h4.055h5.749h4.055h2.047c3.915,0,7.097,3.186,7.097,7.098v18.172    c3.615,0.324,6.454,3.369,6.454,7.064V-328.274z"/></g><g><path fill="#000000" d="M476.381-467.101h-2.4c-1.115,0-2.027-0.912-2.027-2.027v-21.184c0-1.115-0.912-2.027-2.027-2.027h-2.043    c-1.121,0-2.945,0-4.061,0h-5.746c-1.115,0-2.939,0-4.055,0h-2.045c-1.119,0-2.031,0.912-2.031,2.027v1.374    c0,1.115,0.912,2.027,2.031,2.027h2.045c1.115,0,2.027,0.912,2.027,2.027v15.755c0,1.115-0.912,2.027-2.027,2.027h-2.4    c-1.115,0-2.027,0.912-2.027,2.027v1.376c0,1.113,0.912,2.027,2.027,2.027h2.4c1.115,0,2.939,0,4.055,0h11.85    c1.115,0,2.939,0,4.055,0h2.4c1.115,0,2.027-0.914,2.027-2.027v-1.376C478.408-466.188,477.496-467.101,476.381-467.101z"/><path fill="#000000" d="M462.793-506.13c3.367,0,6.098-2.729,6.098-6.099c0-3.367-2.73-6.097-6.098-6.097    c-3.373,0-6.1,2.729-6.1,6.097C456.693-508.859,459.42-506.13,462.793-506.13z"/><path fill="#000000" d="M464.002-540.003c-27.615,0-50.004,22.388-50.004,50.003s22.389,50.003,50.004,50.003s50-22.388,50-50.003    S491.617-540.003,464.002-540.003z M462.793-523.396c6.158,0,11.166,5.011,11.166,11.167c0,6.159-5.008,11.167-11.166,11.167    s-11.168-5.009-11.168-11.167C451.625-518.385,456.635-523.396,462.793-523.396z M483.477-463.697    c0,3.913-3.184,7.096-7.096,7.096h-2.4h-4.055h-11.85h-4.055h-2.4c-3.912,0-7.098-3.183-7.098-7.096v-1.376    c0-3.697,2.844-6.744,6.453-7.066v-9.771c-3.443-0.486-6.098-3.453-6.098-7.026v-1.374c0-3.913,3.182-7.098,7.098-7.098h2.045    h4.055h5.746h4.061h2.043c3.916,0,7.1,3.186,7.1,7.098v18.172c3.609,0.322,6.451,3.369,6.451,7.066V-463.697z"/></g><g><rect x="328.535" y="-370.644" fill="#000000" width="17.9" height="14.274"/><polygon fill="#000000" points="323.465,-375.711 328.535,-375.711 341.346,-375.711 326.088,-382.476 310.713,-375.711   "/><rect x="305.564" y="-370.644" fill="#000000" width="17.9" height="14.274"/><path fill="#000000" d="M326-332.886c6.342,0,11.486-4.938,11.486-11.036v-7.159h-22.973v7.159    C314.514-337.823,319.66-332.886,326-332.886z"/><path fill="#000000" d="M326-402.003c-27.615,0-50.004,22.387-50.004,50.006c0,27.613,22.389,50,50.004,50    s50.004-22.387,50.004-50C376.004-379.616,353.615-402.003,326-402.003z M354.041-372.33v29.876    c0,14.34-12.58,26.005-28.041,26.005s-28.041-11.665-28.041-26.005v-29.876v-3.308l3.027-1.33l23.059-10.146l2.049-0.904    l2.047,0.908l22.883,10.146l3.018,1.337V-372.33z"/><path fill="#000000" d="M340.02-351.298v0.217v7.159c0,7.481-6.291,13.572-14.02,13.572c-7.732,0-14.02-6.091-14.02-13.572v-7.159    v-0.217h-8.951v8.844c0,11.563,10.281,20.934,22.971,20.934c12.686,0,22.971-9.371,22.971-20.934v-8.844H340.02z"/></g><g><path fill="#000000" d="M189.004-364.769c-7.045,0-12.771,5.73-12.771,12.771s5.727,12.773,12.771,12.773    s12.771-5.732,12.771-12.773S196.049-364.769,189.004-364.769z"/><path fill="#000000" d="M212.904-357.12h-0.549c-1.115,0-2.313-0.866-2.658-1.928l-1.076-2.605    c-0.502-0.996-0.275-2.452,0.51-3.238l0.385-0.391c0.789-0.785,0.793-2.078,0-2.863l-4.365-4.373    c-0.395-0.392-0.916-0.587-1.432-0.587c-0.525,0-1.041,0.195-1.436,0.587l-0.389,0.391c-0.502,0.503-1.281,0.775-2.035,0.775    c-0.426,0-0.846-0.084-1.201-0.269l-2.609-1.075c-1.063-0.347-1.928-1.541-1.928-2.658v-0.545c0-1.114-0.912-2.025-2.025-2.025    h-6.184c-1.117,0-2.027,0.911-2.027,2.025v0.545c0,1.117-0.871,2.312-1.93,2.658l-2.611,1.075    c-0.355,0.185-0.771,0.272-1.197,0.272c-0.756,0-1.533-0.276-2.041-0.779l-0.383-0.384c-0.396-0.396-0.916-0.594-1.434-0.594    c-0.52,0-1.041,0.198-1.436,0.594l-4.369,4.366c-0.789,0.789-0.789,2.081,0,2.867l0.385,0.387c0.789,0.786,1.02,2.242,0.51,3.234    l-1.076,2.616c-0.342,1.062-1.539,1.928-2.654,1.928h-0.545c-1.117,0-2.025,0.911-2.025,2.029v6.175    c0,1.117,0.908,2.029,2.025,2.029h0.545c1.119,0,2.313,0.866,2.658,1.928l1.076,2.609c0.506,0.992,0.279,2.451-0.506,3.24    l-0.389,0.385c-0.785,0.789-0.789,2.082,0,2.871l4.369,4.365c0.395,0.395,0.916,0.594,1.432,0.594    c0.525,0,1.041-0.199,1.436-0.594l0.389-0.384c0.506-0.507,1.285-0.782,2.039-0.782c0.426,0,0.842,0.087,1.201,0.272l2.605,1.071    c1.063,0.347,1.928,1.541,1.928,2.658v0.545c0,1.117,0.916,2.029,2.029,2.029h6.18c1.117,0,2.029-0.912,2.029-2.029v-0.545    c0-1.117,0.865-2.312,1.924-2.661l2.609-1.072c0.355-0.185,0.777-0.272,1.205-0.272c0.75,0,1.529,0.276,2.031,0.779l0.393,0.391    c0.395,0.392,0.914,0.59,1.432,0.59c0.52,0,1.041-0.198,1.436-0.59l4.369-4.373c0.789-0.785,0.789-2.078,0-2.863l-0.393-0.391    c-0.785-0.79-1.012-2.25-0.51-3.242l1.076-2.605c0.346-1.061,1.543-1.928,2.658-1.928h0.549c1.117,0,2.025-0.911,2.025-2.025    v-6.182C214.93-356.208,214.021-357.12,212.904-357.12z M189.004-336.688c-8.441,0-15.309-6.87-15.309-15.309    c0-8.438,6.867-15.308,15.309-15.308s15.309,6.87,15.309,15.308C204.313-343.559,197.445-336.688,189.004-336.688z"/><path fill="#000000" d="M189.004-402.003c-27.615,0-50.004,22.387-50.004,50.006c0,27.613,22.389,50,50.004,50    s50.004-22.387,50.004-50C239.008-379.616,216.619-402.003,189.004-402.003z M220-348.909c0,3.569-2.646,6.531-6.084,7.023    l-0.143,0.35c0.914,1.219,1.408,2.699,1.408,4.258c0,1.896-0.738,3.678-2.076,5.012l-4.371,4.373    c-1.342,1.337-3.123,2.07-5.016,2.07c-1.551,0-3.029-0.492-4.248-1.407l-0.35,0.144c-0.492,3.436-3.457,6.084-7.025,6.084h-6.18    c-3.568,0-6.531-2.648-7.023-6.081l-0.352-0.144c-1.219,0.916-2.701,1.408-4.252,1.408c-1.893,0-3.674-0.737-5.014-2.074    l-4.367-4.366c-1.34-1.338-2.08-3.119-2.08-5.019c0-1.555,0.494-3.035,1.406-4.251l-0.143-0.356    c-3.438-0.492-6.084-3.454-6.084-7.023v-6.175c0-3.569,2.646-6.531,6.076-7.026l0.146-0.354c-0.914-1.219-1.406-2.693-1.406-4.247    c0-1.899,0.736-3.685,2.078-5.019l4.373-4.373c1.336-1.334,3.117-2.07,5.014-2.07c1.551,0,3.025,0.492,4.244,1.403l0.354-0.146    c0.496-3.433,3.457-6.077,7.025-6.077h6.184c3.563,0,6.527,2.645,7.02,6.077l0.355,0.146c1.217-0.911,2.693-1.407,4.248-1.407    c1.893,0,3.674,0.736,5.016,2.074l4.365,4.366c1.34,1.337,2.082,3.118,2.082,5.019c0,1.555-0.496,3.035-1.412,4.25l0.146,0.35    c3.438,0.492,6.084,3.458,6.084,7.027V-348.909z"/></g><g><path fill="#000000" d="M-116.107-490.01c5.089,4.982,15.976,14.004,28.108,14.004c12.12,0,23.003-9.008,28.095-13.997    c-5.088-4.983-15.971-13.991-28.095-13.991C-100.191-503.994-111.036-494.995-116.107-490.01z M-75.545-490    c0,6.879-5.581,12.455-12.455,12.455c-6.88,0-12.455-5.576-12.455-12.455c0-6.88,5.575-12.455,12.455-12.455    C-81.126-502.455-75.545-496.88-75.545-490z"/><path fill="#000000" d="M-95.387-490c0,4.072,3.314,7.385,7.387,7.385s7.388-3.313,7.388-7.385s-3.315-7.385-7.388-7.385    S-95.387-494.072-95.387-490z"/><path fill="#000000" d="M-87.997-540.004c-27.619,0-50.007,22.388-50.007,50.004s22.388,50.004,50.007,50.004    c27.613,0,50.001-22.388,50.001-50.004S-60.384-540.004-87.997-540.004z M-87.999-470.937c-19.362,0-35.058-19.066-35.058-19.066    s15.696-19.061,35.058-19.061c19.356,0,35.056,19.061,35.056,19.061S-68.643-470.937-87.999-470.937z"/></g><g><circle fill="#000000" cx="50" cy="-495.739" r="7.185"/><path fill="#000000" d="M50-516.6c-11.5,0-20.822,9.323-20.822,20.823c0,11.5,20.822,32.38,20.822,32.38    s20.823-20.88,20.823-32.38C70.823-507.277,61.5-516.6,50-516.6z M50-483.485c-6.758,0-12.255-5.496-12.255-12.253    c0-6.759,5.497-12.255,12.255-12.255c6.759,0,12.256,5.497,12.256,12.255C62.256-488.981,56.759-483.485,50-483.485z"/><path fill="#000000" d="M50-540.003c-27.615,0-50.003,22.388-50.003,50.003S22.385-439.997,50-439.997    s50.003-22.388,50.003-50.003S77.615-540.003,50-540.003z M53.59-459.816L50-456.22l-3.59-3.597    c-3.725-3.737-22.301-23.019-22.301-35.96c0-14.278,11.612-25.891,25.891-25.891c14.279,0,25.892,11.613,25.892,25.891    C75.892-482.835,57.314-463.554,53.59-459.816z"/></g><g><polygon fill="#000000" points="210.426,-496.434 187.947,-518.911 181.498,-512.454 199.391,-494.566 161.518,-494.566     161.518,-485.435 199.424,-485.435 181.537,-467.546 187.99,-461.089 216.895,-489.993 210.441,-496.447   "/><path fill="#000000" d="M187.996-540.003c-27.611,0-50,22.388-50,50.003s22.389,50.003,50,50.003    c27.619,0,50.008-22.388,50.008-50.003S215.615-540.003,187.996-540.003z M220.479-486.409l-28.904,28.904l-3.584,3.586    l-3.584-3.586l-6.453-6.457l-3.584-3.586l3.584-3.582l9.232-9.236h-25.668h-5.068v-5.068v-9.131v-5.068h5.068h25.635l-9.238-9.235    l-3.584-3.582l3.58-3.583l6.451-6.458l3.584-3.588l3.586,3.586l18.898,18.899l0.014-0.015l3.58,3.58l6.455,6.456l3.584,3.582    L220.479-486.409z"/></g><g><path fill="#000000" d="M331.912-514.869h-11.826c-1.118,0-2.027,0.914-2.027,2.027v22.547c0,1.116,0.909,2.027,2.027,2.027    h11.826c1.113,0,2.025-0.911,2.025-2.027v-22.547C333.938-513.955,333.025-514.869,331.912-514.869z"/><path fill="#000000" d="M326-473.868c-3.372,0-6.099,2.729-6.099,6.1c0,3.367,2.727,6.096,6.099,6.096    c3.365,0,6.097-2.729,6.097-6.096C332.097-471.139,329.365-473.868,326-473.868z"/><path fill="#000000" d="M326-540.003c-27.617,0-50.003,22.388-50.003,50.003s22.386,50.003,50.003,50.003    c27.615,0,50.003-22.388,50.003-50.003S353.615-540.003,326-540.003z M326-456.602c-6.158,0-11.167-5.011-11.167-11.167    c0-6.158,5.009-11.168,11.167-11.168c6.156,0,11.165,5.01,11.165,11.168C337.165-461.612,332.156-456.602,326-456.602z     M339.006-490.295c0,3.913-3.183,7.096-7.094,7.096h-11.826c-3.915,0-7.096-3.183-7.096-7.096v-22.547    c0-3.913,3.181-7.096,7.096-7.096h11.826c3.911,0,7.094,3.183,7.094,7.096V-490.295z"/></g></g><text x="0" y="115" fill="#000000" font-size="5px" font-weight="bold" font-family="'Helvetica Neue', Helvetica, Arial-Unicode, Arial, Sans-serif">Created by Katya Sotnikova</text><text x="0" y="120" fill="#000000" font-size="5px" font-weight="bold" font-family="'Helvetica Neue', Helvetica, Arial-Unicode, Arial, Sans-serif">from the Noun Project</text></svg>